<svg xmlns="http://www.w3.org/2000/svg" viewBox="0 0 200 200" width="200" height="200">
  <!-- Background circle -->
  <circle cx="100" cy="100" r="100" fill="#e1f5fe"/>
  
  <!-- Head -->
  <circle cx="100" cy="85" r="45" fill="#ffd699"/>
  
  <!-- Hair -->
  <path d="M55 85 Q100 15 145 85 Q145 60 100 50 Q55 60 55 85Z" fill="#5d4037"/>
  
  <!-- Eyes -->
  <ellipse cx="85" cy="80" rx="6" ry="4" fill="#3d3d3d"/>
  <ellipse cx="115" cy="80" rx="6" ry="4" fill="#3d3d3d"/>
  
  <!-- Eyebrows -->
  <path d="M75 72 Q85 68 95 72" stroke="#3d3d3d" stroke-width="2" fill="transparent"/>
  <path d="M105 72 Q115 68 125 72" stroke="#3d3d3d" stroke-width="2" fill="transparent"/>
  
  <!-- Nose -->
  <path d="M100 85 Q105 95 100 98 Q95 95 100 85" fill="#f0c8a0"/>
  
  <!-- Mouth -->
  <path d="M85 105 Q100 115 115 105" stroke="#d32f2f" stroke-width="2" fill="transparent"/>
  
  <!-- Neck -->
  <path d="M85 130 L85 150 L115 150 L115 130" fill="#ffd699"/>
  
  <!-- Shirt/Suit -->
  <path d="M60 150 L85 150 L85 130 Q100 135 115 130 L115 150 L140 150 L150 200 L50 200 Z" fill="#01579b"/>
  
  <!-- Collar/Tie -->
  <path d="M85 130 L95 145 L100 135 L105 145 L115 130" fill="white"/>
  <path d="M95 145 L100 180 L105 145" fill="#d32f2f"/>
</svg>